<?xml version="1.0" standalone="no"?>
<!DOCTYPE svg PUBLIC "-//W3C//DTD SVG 20010904//EN"
 "http://www.w3.org/TR/2001/REC-SVG-20010904/DTD/svg10.dtd">
<svg version="1.0" xmlns="http://www.w3.org/2000/svg"
 width="700.000000pt" height="700.000000pt" viewBox="0 0 700.000000 700.000000"
 preserveAspectRatio="xMidYMid meet">
<metadata>
Created by potrace 1.14, written by Peter Selinger 2001-2017
</metadata>
<g transform="translate(0.000000,700.000000) scale(0.100000,-0.100000)"
fill="#000000" stroke="none">
<path d="M3288 6415 c-1 -2 -36 -6 -77 -9 -440 -37 -880 -180 -1199 -389 -163
-107 -269 -201 -407 -362 -77 -90 -192 -287 -246 -422 -29 -73 -72 -219 -83
-283 -3 -19 -8 -46 -11 -60 -30 -145 -27 -525 4 -685 18 -89 20 -97 47 -179
59 -185 176 -369 334 -526 100 -99 132 -126 280 -223 301 -200 690 -353 1285
-507 132 -34 152 -39 370 -105 393 -117 539 -188 591 -289 22 -43 27 -156 8
-208 -52 -148 -206 -210 -514 -209 -402 1 -864 106 -1315 298 -151 64 -441
217 -589 311 l-49 31 -55 -87 c-30 -48 -65 -103 -78 -122 -26 -41 -195 -309
-209 -333 -5 -9 -52 -83 -104 -164 -179 -280 -301 -476 -301 -483 0 -8 196
-138 305 -202 279 -166 623 -317 940 -413 113 -34 357 -97 421 -109 16 -2 76
-14 134 -24 58 -11 130 -23 160 -27 30 -3 62 -8 70 -10 13 -3 47 -7 170 -20
263 -28 758 -28 975 1 712 92 1190 323 1518 734 175 218 298 499 333 760 3 25
8 54 10 65 22 111 21 463 -1 575 -3 14 -10 51 -15 82 -49 268 -224 556 -460
757 -292 247 -656 418 -1296 606 -424 125 -505 150 -652 200 -207 71 -261 90
-297 109 -16 9 -34 16 -38 16 -15 0 -101 63 -130 94 -46 50 -60 85 -60 156 -2
264 341 349 928 229 148 -30 499 -132 520 -150 5 -5 15 -9 23 -9 16 0 282
-105 369 -146 32 -15 116 -56 187 -91 106 -54 131 -63 141 -51 6 7 53 87 102
178 50 91 123 223 162 293 39 70 71 132 71 137 0 6 5 10 10 10 6 0 10 5 10 10
0 6 20 45 44 88 110 191 276 496 276 506 0 15 -203 130 -381 215 -245 118
-541 224 -824 296 -16 5 -34 9 -40 11 -92 26 -371 79 -475 90 -25 2 -56 7 -70
9 -14 3 -50 7 -80 10 -30 3 -77 8 -105 11 -55 6 -631 15 -637 9z"/>
</g>
</svg>
