<?xml version="1.0" encoding="UTF-8"?>
<svg width="540px" height="137px" viewBox="0 0 540 137" version="1.1" xmlns="http://www.w3.org/2000/svg" xmlns:xlink="http://www.w3.org/1999/xlink">
    <title>Shape Copy</title>
    <g id="Logo" stroke="none" stroke-width="1" fill="none" fill-rule="evenodd">
        <g id="Logo-Typo-Copy" transform="translate(-138.000000, -312.000000)" fill="#00E9F3" fill-rule="nonzero">
            <path d="M177.714885,426 C182.782669,426 187.436758,425.422281 191.677149,424.266844 C195.91754,423.111407 199.537386,421.378251 202.536688,419.067376 C205.535989,416.756501 207.863033,413.918144 209.51782,410.552305 C211.054408,407.426883 211.87758,403.803326 211.987336,399.681634 L212,398.721631 L212,398.420213 C212,394.501773 211.224319,391.135934 209.672956,388.322695 C208.121593,385.509456 206.001398,383.123227 203.312369,381.164007 C200.62334,379.204787 197.468903,377.546986 193.849057,376.190603 C190.22921,374.83422 186.350804,373.603428 182.213836,372.498227 L180.491479,371.985146 L178.882199,371.49082 L177.385996,371.015248 L176.00287,370.558432 L174.732821,370.12037 L173.575849,369.701064 L172.531954,369.300512 C172.367395,369.235317 172.207547,369.170902 172.052411,369.10727 C169.880503,368.216411 168.722152,367.041102 168.577358,365.581344 L168.561845,365.264184 L168.561845,364.962766 C168.561845,363.857565 169.130678,362.928191 170.268344,362.174645 C171.40601,361.421099 173.112509,361.044326 175.387841,361.044326 C178.697414,361.044326 182.575821,361.722518 187.023061,363.078901 C190.976163,364.284574 194.888406,365.867331 198.75979,367.827171 L200.209644,368.579787 L210.293501,350.494681 C205.432565,347.480496 200.002795,345.144504 194.004193,343.486702 C188.00559,341.828901 181.903564,341 175.698113,341 C170.837177,341 166.364081,341.602837 162.278826,342.808511 C158.193571,344.014184 154.651293,345.74734 151.651992,348.007979 C148.65269,350.268617 146.29979,353.081856 144.593291,356.447695 C143.008685,359.573117 142.159789,363.110042 142.046603,367.05847 L142.033543,367.97695 L142.033543,368.278369 C142.033543,372.397754 142.809224,375.864066 144.360587,378.677305 C145.91195,381.490544 148.032145,383.876773 150.721174,385.835993 C153.410203,387.795213 156.56464,389.453014 160.184486,390.809397 C163.804333,392.16578 167.682739,393.346336 171.819706,394.351064 L172.694675,394.590189 L175.145828,395.283452 L176.635136,395.725532 L178.008609,396.151537 L179.266247,396.561466 L180.40805,396.955319 L180.935514,397.146217 L180.935514,397.146217 L181.903564,397.515957 C184.027207,398.359929 185.159817,399.510231 185.301393,400.966864 L185.316562,401.283688 L185.316562,401.585106 C185.316562,404.498818 182.834382,405.955674 177.870021,405.955674 C173.526205,405.955674 168.846261,405.177009 163.830189,403.619681 C159.232122,402.19213 154.699234,400.110284 150.231525,397.374144 L149.014675,396.611702 L138,413.943262 C143.895178,418.062648 150.204053,421.10195 156.926625,423.06117 C163.649196,425.02039 170.578616,426 177.714885,426 Z M340.473684,424 L340.473684,398.658791 C340.473684,389.206118 342.542013,382.267454 346.67867,377.842799 C350.815328,373.418143 356.761773,371.205816 364.518006,371.205816 L367,371.205816 L367,341.03771 C359.967682,340.736029 354.383195,342.244434 350.246537,345.562926 C346.10988,348.881418 342.852262,353.306073 340.473684,358.836892 L340.473684,342.395275 L311,342.395275 L311,424 L340.473684,424 Z M270.636364,341 C275.484848,341 280.106061,341.984572 284.5,343.953717 C288.893939,345.922861 292.757576,348.725105 296.090909,352.360449 C299.424242,355.995792 302.075758,360.43899 304.045455,365.690042 C305.883838,370.591024 306.86431,376.063787 306.986869,382.108331 L307,383.412342 L306.986869,385.039158 C306.86431,391.174811 305.883838,396.71669 304.045455,401.664797 C302.075758,406.966339 299.449495,411.460028 296.166667,415.145863 C292.883838,418.831697 289.045455,421.659187 284.651515,423.628331 C280.257576,425.597475 275.636364,426.582048 270.787879,426.582048 C267.656566,426.582048 264.853535,426.253857 262.378788,425.597475 C259.90404,424.941094 257.656566,424.082749 255.636364,423.02244 C253.616162,421.962132 251.79798,420.69986 250.181818,419.235624 C248.888889,418.064236 247.692929,416.87669 246.593939,415.672987 L245.787879,414.767181 L245.787879,449 L217,449 L217,342.817672 L245.787879,342.817672 L245.787879,353.723703 L246.648485,352.705806 C247.812121,351.364769 249.040404,350.088359 250.333333,348.876578 C251.949495,347.361851 253.742424,346.023843 255.712121,344.862553 C257.681818,343.701262 259.90404,342.767181 262.378788,342.060309 C264.853535,341.353436 267.606061,341 270.636364,341 Z M644,312 L644,425.140162 L615.212121,425.140162 L615.212121,413.981132 L614.428249,414.927703 C611.773604,418.044512 608.701561,420.777056 605.212121,423.125337 C601.373737,425.708446 596.373737,427 590.212121,427 C585.363636,427 580.742424,425.992588 576.348485,423.977763 C571.954545,421.962938 568.116162,419.095687 564.833333,415.376011 C561.550505,411.656334 558.924242,407.110063 556.954545,401.737197 C555.116162,396.722522 554.13569,391.122801 554.013131,384.938035 L554,383.603774 L554.012795,381.939218 C554.132211,375.661231 555.087542,369.990791 556.878788,364.927898 C558.79798,359.503369 561.424242,354.905436 564.757576,351.134097 C568.090909,347.362758 571.929293,344.469677 576.272727,342.454852 C580.616162,340.440027 585.212121,339.432615 590.060606,339.432615 C596.222222,339.432615 601.272727,340.646676 605.212121,343.074798 C608.793388,345.282182 611.873779,347.809786 614.453293,350.65761 L615.212121,351.521563 L615.212121,312 L644,312 Z M496.421642,341 L496.421642,386.036166 L496.432894,386.838209 C496.552917,391.053363 497.633121,394.270042 499.673507,396.488246 C501.841418,398.845087 504.731965,400.023508 508.345149,400.023508 C511.8551,400.023508 514.771455,398.845087 517.094216,396.488246 C519.416978,394.131404 520.578358,390.647378 520.578358,386.036166 L520.578358,386.036166 L520.578358,341 L550,341 L550,424.155515 L520.578358,424.155515 L520.578358,412.781193 L519.893359,413.643661 C517.330435,416.77473 514.203669,419.561382 510.51306,422.003617 C506.48694,424.667872 501.4801,426 495.492537,426 C486.511194,426 479.517102,423.284509 474.510261,417.853526 C469.50342,412.422544 467,404.942134 467,395.412297 L467,395.412297 L467,341 L496.421642,341 Z M413.150502,341 C419.672241,341 425.667224,342.126325 431.135452,344.378975 C436.603679,346.631625 441.344482,349.660188 445.35786,353.464664 C449.371237,357.26914 452.481605,361.724382 454.688963,366.830389 C456.749164,371.595995 457.847938,376.66685 457.985284,382.042952 L458,383.199647 L458,383.5 L457.98495,384.657028 C457.844482,390.036245 456.720736,395.132018 454.613712,399.944346 C452.356187,405.100412 449.220736,409.605713 445.207358,413.460247 C441.19398,417.314782 436.428094,420.368375 430.909699,422.621025 C425.391304,424.873675 419.371237,426 412.849498,426 C406.327759,426 400.332776,424.898704 394.864548,422.696113 C389.396321,420.493522 384.655518,417.464959 380.64214,413.610424 C376.628763,409.755889 373.518395,405.275618 371.311037,400.169611 C369.250836,395.404005 368.152062,390.33315 368.014716,384.957048 L368,383.800353 L368.01505,382.342972 C368.155518,376.963755 369.279264,371.867982 371.386288,367.055654 C373.643813,361.899588 376.779264,357.394287 380.792642,353.539753 C384.80602,349.685218 389.571906,346.631625 395.090301,344.378975 C400.608696,342.126325 406.628763,341 413.150502,341 Z M663.5,395 C671.508129,395 678,401.491871 678,409.5 C678,417.508129 671.508129,424 663.5,424 C655.491871,424 649,417.508129 649,409.5 C649,401.491871 655.491871,395 663.5,395 Z M596.831448,363.862745 C594.33371,363.862745 591.998869,364.35572 589.826923,365.341669 C587.654977,366.327618 585.754525,367.696991 584.125566,369.44979 C582.496606,371.202588 581.193439,373.311423 580.216063,375.776296 C579.347285,377.967294 578.86463,380.353047 578.7681,382.933556 L578.75,383.910375 L578.75,384.239025 L578.7681,385.215845 C578.86463,387.796354 579.347285,390.182107 580.216063,392.373105 C581.193439,394.837977 582.496606,396.9742 584.125566,398.781773 C585.754525,400.589347 587.654977,401.986108 589.826923,402.972057 C591.998869,403.958006 594.33371,404.45098 596.831448,404.45098 C599.329186,404.45098 601.664027,403.958006 603.835973,402.972057 C606.007919,401.986108 607.908371,400.589347 609.53733,398.781773 C611.16629,396.9742 612.442308,394.837977 613.365385,392.373105 C614.185897,390.182107 614.641738,387.796354 614.732906,385.215845 L614.75,384.239025 L614.75,383.910375 L614.732906,382.93457 C614.641738,380.359471 614.185897,378.000767 613.365385,375.858458 C612.442308,373.448361 611.16629,371.339525 609.53733,369.531952 C607.908371,367.724379 606.007919,366.327618 603.835973,365.341669 C601.664027,364.35572 599.329186,363.862745 596.831448,363.862745 Z M261.918552,363.5 C259.420814,363.5 257.085973,363.991903 254.914027,364.975709 C252.742081,365.959514 250.841629,367.353239 249.21267,369.156883 C247.58371,370.960526 246.307692,373.064777 245.384615,375.469636 C244.564103,377.607287 244.108262,379.960864 244.017094,382.530364 L244,383.504049 L244,383.831984 L244.017094,384.80668 C244.108262,387.381579 244.564103,389.762146 245.384615,391.948381 C246.307692,394.407895 247.58371,396.539474 249.21267,398.343117 C250.841629,400.146761 252.742081,401.540486 254.914027,402.524291 C257.085973,403.508097 259.420814,404 261.918552,404 C267.022624,404 271.312217,402.1417 274.78733,398.425101 C278.104484,394.877438 279.83845,390.283974 279.98923,384.644708 L280,383.831984 L280,383.504049 L279.98818,382.668223 C279.830578,377.145625 278.096962,372.614517 274.78733,369.074899 C271.312217,365.3583 267.022624,363.5 261.918552,363.5 Z M412.842105,363.368421 C410.105263,363.368421 407.631579,363.890962 405.421053,364.936044 C403.210526,365.981126 401.342105,367.411238 399.815789,369.226381 C398.289474,371.041523 397.105263,373.159189 396.263158,375.579379 C395.526316,377.697045 395.111842,379.898936 395.019737,382.185053 L395,383.169974 L395,383.5 L395.016569,384.410627 C395.104938,386.822668 395.546784,389.104328 396.342105,391.255608 C397.236842,393.675798 398.5,395.793464 400.131579,397.608607 C401.763158,399.423749 403.684211,400.881363 405.894737,401.98145 C408.105263,403.081536 410.526316,403.631579 413.157895,403.631579 C415.894737,403.631579 418.368421,403.109038 420.578947,402.063956 C422.789474,401.018874 424.657895,399.588762 426.184211,397.773619 C427.710526,395.958477 428.894737,393.840811 429.736842,391.420621 C430.473684,389.302955 430.888158,387.101064 430.980263,384.814947 L431,383.830026 L431,383.5 L430.983431,382.589373 C430.895062,380.177332 430.453216,377.895672 429.657895,375.744392 C428.763158,373.324202 427.5,371.206536 425.868421,369.391393 C424.236842,367.576251 422.315789,366.118637 420.105263,365.01855 C417.894737,363.918464 415.473684,363.368421 412.842105,363.368421 Z" id="Shape-Copy"></path>
        </g>
    </g>
</svg>